<svg xmlns="http://www.w3.org/2000/svg" width="70" height="70" viewBox="0 0 70 70"><path fill="#C8D2D2" d="M19.5 8H18.261L11.5 14.793V62h47V8h-39zm-1 1.178V15h-5.795L18.5 9.178zM57.5 61h-45V16h7V9h38v52z"/><path fill="#C8D2D2" d="M36.598 46.076a.444.444 0 0 1-.074-.006l-12.928-1.988a.497.497 0 0 1-.422-.49V26.686c0-.231.161-.432.386-.484l12.927-2.983a.5.5 0 0 1 .609.485V45.58a.5.5 0 0 1-.498.496zm-12.43-2.912L36.1 45V24.328l-11.932 2.754v16.082z"/><path fill="#C8D2D2" d="M46.542 44.088h-9.944a.498.498 0 0 1-.498-.496c0-.275.224-.498.498-.498h9.446V26.189h-9.446a.499.499 0 0 1 0-.996h9.944c.274 0 .498.222.498.498v17.9a.498.498 0 0 1-.498.497zM32.621 39.117a.49.49 0 0 1-.421-.235l-4.972-7.955a.497.497 0 1 1 .843-.527l4.972 7.954a.498.498 0 0 1-.422.763z"/><path fill="#C8D2D2" d="M27.648 39.117a.498.498 0 0 1-.421-.763l4.972-7.954a.498.498 0 0 1 .843.527l-4.972 7.955a.496.496 0 0 1-.422.235zM40.576 44.088a.498.498 0 0 1-.498-.496v-17.9a.496.496 0 1 1 .994 0v17.9a.496.496 0 0 1-.496.496z"/><path fill="#C8D2D2" d="M46.542 41.104h-9.944a.498.498 0 0 1-.498-.496c0-.275.224-.498.498-.498h9.944a.498.498 0 0 1 0 .994zM46.542 38.122h-9.944a.497.497 0 0 1 0-.994h9.944a.497.497 0 1 1 0 .994zM46.542 35.139h-9.944a.499.499 0 0 1-.498-.498c0-.273.224-.496.498-.496h9.944c.274 0 .498.223.498.496a.499.499 0 0 1-.498.498zM46.542 32.156h-9.944a.499.499 0 0 1 0-.995h9.944a.498.498 0 1 1 0 .995zM46.542 29.172h-9.944a.498.498 0 1 1 0-.995h9.944a.498.498 0 0 1 0 .995z"/></svg>