<svg xmlns="http://www.w3.org/2000/svg" width="70" height="70" viewBox="0 0 70 70"><path fill="#C8D2D2" d="M19.5 8H18.261L11.5 14.793V62h47V8h-39zm-1 1.178V15h-5.795L18.5 9.178zM57.5 61h-45V16h7V9h38v52z"/><path fill="none" stroke="#C8D2D2" stroke-width="1.57" stroke-linejoin="round" stroke-miterlimit="10" d="M36.025 25.636c.422.183.328.46.188 1.762-.144 1.349-.618 3.806-1.534 6.218-.919 2.415-2.281 4.785-3.468 6.542-1.185 1.756-2.201 2.896-2.974 3.555-.777.658-1.314.832-1.665.893-.349.061-.507 0-.601-.175s-.127-.47-.046-.819c.079-.353.269-.763.804-1.287.541-.527 1.427-1.17 2.662-1.771 1.234-.6 2.815-1.156 4.114-1.535 1.3-.381 2.312-.585 3.197-.745.888-.161 1.647-.278 2.39-.336a13.528 13.528 0 0 1 4.198.319c.602.146 1.107.322 1.551.602.442.277.823.658 1.012 1.082.192.425.192.893.033 1.229-.158.336-.476.543-.839.658a2.077 2.077 0 0 1-1.266 0c-.491-.146-1.063-.468-1.663-.894-.6-.423-1.234-.948-2.057-1.769a35.768 35.768 0 0 1-2.691-3.015c-.854-1.083-1.553-2.136-2.028-3.028a11.287 11.287 0 0 1-.933-2.357c-.206-.731-.364-1.462-.428-2.12a7.5 7.5 0 0 1 .031-1.71c.063-.47.16-.82.317-1.054.158-.235.381-.352.539-.41.157-.06.254-.06.348-.073.095-.014.188-.044.333 0 .14.039.324.15.476.238z"/></svg>