<svg xmlns="http://www.w3.org/2000/svg" width="70" height="70" viewBox="0 0 70 70"><path fill="#C8D2D2" d="M19.5 8H18.261L11.5 14.793V62h47V8h-39zm-1 1.178V15h-5.795L18.5 9.178zM57.5 61h-45V16h7V9h38v52z"/><path fill="#C8D2D2" d="M37.526 46.11a.567.567 0 0 1-.073-.006l-12.561-1.933a.483.483 0 0 1-.41-.478V27.27c0-.225.156-.42.375-.47l12.56-2.898a.483.483 0 0 1 .592.47v21.256a.484.484 0 0 1-.483.482zm-12.078-2.829l11.595 1.782V24.978l-11.595 2.676v15.627z"/><path fill="#C8D2D2" d="M47.188 44.177h-9.661a.482.482 0 1 1 0-.964h9.178V26.787h-9.178a.482.482 0 1 1 0-.966h9.661c.267 0 .482.216.482.483v17.391a.482.482 0 0 1-.482.482zM32.695 39.347a.482.482 0 0 1-.464-.351l-1.468-5.137-1.469 5.137c-.119.416-.81.416-.929 0l-1.933-6.763a.483.483 0 1 1 .929-.265l1.469 5.136 1.469-5.136c.119-.416.809-.416.928 0l1.468 5.136 1.468-5.136a.482.482 0 1 1 .929.265l-1.932 6.763a.484.484 0 0 1-.465.351z"/><path fill="#C8D2D2" d="M45.254 29.685h-7.728a.482.482 0 1 1 0-.966h7.728a.482.482 0 1 1 0 .966zM45.254 32.584h-7.728a.482.482 0 1 1 0-.966h7.728a.482.482 0 1 1 0 .966zM45.254 35.482h-7.728a.482.482 0 1 1 0-.965h7.728a.482.482 0 1 1 0 .965zM45.254 38.381h-7.728a.482.482 0 1 1 0-.966h7.728a.482.482 0 1 1 0 .966zM45.254 41.28h-7.728a.484.484 0 0 1 0-.967h7.728a.483.483 0 1 1 0 .967z"/></svg>