<svg xmlns="http://www.w3.org/2000/svg" width="30" height="30" viewBox="0 0 30 30"><path fill="#C8D2D2" d="M15.116 17.287c-7.999 0-10.734 4.729-10.847 4.93l.872.488c.103-.18 2.593-4.418 9.975-4.418 7.056 0 9.645 4.246 9.751 4.426l.863-.504c-.117-.201-2.958-4.922-10.614-4.922zM6.565 13.142L9 10.707l2.435 2.435.707-.707L9.707 10l2.435-2.435-.707-.707L9 9.293 6.565 6.858l-.707.707L8.293 10l-2.435 2.435zM18.565 13.142L21 10.707l2.435 2.435.707-.707L21.707 10l2.435-2.435-.707-.707L21 9.293l-2.435-2.435-.707.707L20.293 10l-2.435 2.435z"/></svg>