<svg xmlns="http://www.w3.org/2000/svg" width="70" height="70" viewBox="0 0 70 70"><path fill="#C8D2D2" d="M8.5 8v54h53V8h-53zm52 53h-51V9h51v52z"/><path fill="#C8D2D2" d="M17.577 49.352l.852.525c.042-.068 4.311-6.763 16.762-6.763 11.865 0 16.349 6.703 16.392 6.771l.842-.542c-.191-.295-4.791-7.229-17.234-7.229-13.005 0-17.432 6.943-17.614 7.238zM26.243 22.464l-.707-.707L22 25.293l-3.536-3.536-.707.707L21.293 26l-3.536 3.536.707.707L22 26.707l3.536 3.536.707-.707L22.707 26zM45.465 30.243L49 26.707l3.535 3.536.707-.707L49.707 26l3.535-3.536-.707-.707L49 25.293l-3.535-3.536-.707.707L48.293 26l-3.535 3.536z"/></svg>