<svg xmlns="http://www.w3.org/2000/svg" width="70" height="70" viewBox="0 0 70 70"><path fill="#C8D2D2" d="M19.5 8H18.261L11.5 14.793V62h47V8h-39zm-1 1.178V15h-5.795L18.5 9.178zM57.5 61h-45V16h7V9h38v52z"/><path fill="#C8D2D2" d="M36.514 46.422a.323.323 0 0 1-.075-.007l-12.846-1.977a.493.493 0 0 1-.419-.487V27.152c0-.23.159-.429.383-.481l12.847-2.965a.495.495 0 0 1 .605.482v21.739a.491.491 0 0 1-.495.495zm-12.352-2.895l11.858 1.825V24.808l-11.858 2.737v15.982z"/><path fill="#C8D2D2" d="M46.395 44.445h-9.881a.494.494 0 0 1 0-.988h9.388V26.658h-9.388a.494.494 0 0 1 0-.988h9.881c.274 0 .495.221.495.494v17.788a.493.493 0 0 1-.495.493z"/><path fill="#C8D2D2" d="M43.431 41.479h-6.917a.494.494 0 0 1 0-.987h6.917a.493.493 0 1 1 0 .987zM43.431 38.517h-6.917a.495.495 0 0 1 0-.988h6.917a.494.494 0 1 1 0 .988zM27.621 39.504a.495.495 0 0 1-.495-.494v-7.905c0-.273.221-.494.495-.494h1.976a2.474 2.474 0 0 1 2.471 2.47v.989a2.473 2.473 0 0 1-2.471 2.469h-1.482v2.471a.495.495 0 0 1-.494.494zm.493-3.952h1.482c.817 0 1.483-.665 1.483-1.482v-.989c0-.817-.666-1.482-1.483-1.482h-1.482v3.953zM43.431 32.587h-2.964a.492.492 0 0 1-.493-.494v-2.964c0-.272.219-.495.493-.495a3.463 3.463 0 0 1 3.458 3.459.494.494 0 0 1-.494.494zm-2.47-.988h1.927a2.482 2.482 0 0 0-1.927-1.927v1.927z"/><path fill="#C8D2D2" d="M39.479 36.539c-1.907 0-3.459-1.551-3.459-3.458s1.552-3.458 3.459-3.458a.494.494 0 1 1 0 .988 2.474 2.474 0 0 0-2.471 2.47 2.474 2.474 0 0 0 2.471 2.471 2.474 2.474 0 0 0 2.471-2.471.494.494 0 0 1 .988 0 3.462 3.462 0 0 1-3.459 3.458z"/></svg>